<?xml version="1.0" encoding="UTF-8"?>
<svg viewBox="0 0 256 256" xmlns="http://www.w3.org/2000/svg">
  <defs>
    <linearGradient id="soilGrad" x1="0" y1="0" x2="0" y2="1">
      <stop offset="0" stop-color="#8a5024"/>
      <stop offset="1" stop-color="#5a3414"/>
    </linearGradient>
  </defs>
  <rect width="256" height="256" fill="url(#soilGrad)"/>
  <g fill="none" stroke="#3a1f0a" stroke-width="6" stroke-linecap="round" opacity="0.55">
    <path d="M 12 64 Q 128 56 244 64"/>
    <path d="M 12 134 Q 128 126 244 134"/>
    <path d="M 12 204 Q 128 196 244 204"/>
  </g>
  <g fill="none" stroke="#a87040" stroke-width="2" stroke-linecap="round" opacity="0.45">
    <path d="M 14 60 Q 128 52 242 60"/>
    <path d="M 14 130 Q 128 122 242 130"/>
    <path d="M 14 200 Q 128 192 242 200"/>
  </g>
  <g fill="#2a1605" opacity="0.5">
    <circle cx="22" cy="22" r="3"/>
    <circle cx="78" cy="38" r="2.2"/>
    <circle cx="180" cy="20" r="2.6"/>
    <circle cx="234" cy="42" r="2"/>
    <circle cx="44" cy="92" r="2.3"/>
    <circle cx="116" cy="100" r="3"/>
    <circle cx="196" cy="92" r="2"/>
    <circle cx="240" cy="108" r="2.4"/>
    <circle cx="32" cy="162" r="2.6"/>
    <circle cx="148" cy="170" r="2.1"/>
    <circle cx="218" cy="160" r="3"/>
    <circle cx="28" cy="222" r="2.2"/>
    <circle cx="98" cy="232" r="2.6"/>
    <circle cx="178" cy="220" r="2.1"/>
    <circle cx="232" cy="240" r="2.4"/>
  </g>
  <g fill="#b48050" opacity="0.4">
    <circle cx="52" cy="26" r="1.6"/>
    <circle cx="102" cy="48" r="1.4"/>
    <circle cx="158" cy="34" r="1.8"/>
    <circle cx="216" cy="68" r="1.5"/>
    <circle cx="32" cy="112" r="1.6"/>
    <circle cx="86" cy="120" r="1.4"/>
    <circle cx="140" cy="106" r="1.6"/>
    <circle cx="202" cy="118" r="1.5"/>
    <circle cx="50" cy="184" r="1.6"/>
    <circle cx="112" cy="194" r="1.4"/>
    <circle cx="172" cy="178" r="1.6"/>
    <circle cx="226" cy="206" r="1.5"/>
  </g>
</svg>
