<?xml version="1.0" encoding="UTF-8"?>
<svg viewBox="0 0 100 100" xmlns="http://www.w3.org/2000/svg">
  <g fill="none" stroke="#a08a30" stroke-width="3" stroke-linecap="round">
    <line x1="50" y1="98" x2="50" y2="40"/>
    <line x1="40" y1="92" x2="40" y2="50"/>
    <line x1="60" y1="92" x2="60" y2="50"/>
  </g>
  <g fill="none" stroke="#6a8a28" stroke-width="2.4" stroke-linecap="round">
    <path d="M 50 72 Q 35 62 28 50"/>
    <path d="M 40 80 Q 28 72 22 60"/>
    <path d="M 60 80 Q 72 72 78 60"/>
    <path d="M 50 66 Q 65 56 72 44"/>
  </g>
  <g>
    <ellipse cx="50" cy="26" rx="9" ry="18" fill="#e8b020"/>
    <line x1="50" y1="8" x2="50" y2="44" stroke="#9a7008" stroke-width="1.2"/>
    <g stroke="#9a7008" stroke-width="1.4" fill="none" stroke-linecap="round">
      <line x1="46" y1="20" x2="38" y2="11"/>
      <line x1="54" y1="20" x2="62" y2="11"/>
      <line x1="46" y1="28" x2="37" y2="20"/>
      <line x1="54" y1="28" x2="63" y2="20"/>
      <line x1="46" y1="36" x2="38" y2="29"/>
      <line x1="54" y1="36" x2="62" y2="29"/>
    </g>
  </g>
  <g>
    <ellipse cx="40" cy="38" rx="6" ry="13" fill="#d09a18"/>
    <ellipse cx="60" cy="38" rx="6" ry="13" fill="#d09a18"/>
    <line x1="40" y1="25" x2="40" y2="51" stroke="#8a5e08" stroke-width="0.9"/>
    <line x1="60" y1="25" x2="60" y2="51" stroke="#8a5e08" stroke-width="0.9"/>
  </g>
</svg>
